<svg xmlns="http://www.w3.org/2000/svg" viewBox="0 0 48 48" shape-rendering="crispEdges" role="img" aria-label="Warehouse06">
  <title>Warehouse06</title>
  <rect x="6" y="5" width="28" height="38" fill="#3A2F28"/>
  <rect x="7" y="6" width="26" height="36" fill="#524338"/>
  <rect x="8" y="8" width="24" height="9" fill="#7A6E5E"/>
  <rect x="28" y="10" width="3" height="5" fill="#D46248"/>
  <rect x="8" y="19" width="24" height="9" fill="#6A5F52"/>
  <rect x="32" y="19" width="10" height="9" fill="#8E8274"/>
  <rect x="34" y="21" width="6" height="5" fill="#0A120E"/>
  <rect x="35" y="22" width="1" height="1" fill="#6AFF6A"/>
  <rect x="36" y="22" width="2" height="1" fill="#6AFF6A"/>
  <rect x="38" y="22" width="1" height="1" fill="#6AFF6A"/>
  <rect x="35" y="23" width="1" height="1" fill="#6AFF6A"/>
  <rect x="36" y="23" width="1" height="1" fill="#4AE04A"/>
  <rect x="37" y="23" width="1" height="1" fill="#6AFF6A"/>
  <rect x="38" y="23" width="1" height="1" fill="#6AFF6A"/>
  <rect x="36" y="24" width="2" height="1" fill="#4AE04A"/>
  <rect x="8" y="30" width="24" height="9" fill="#7A6E5E"/>
  <rect x="28" y="32" width="3" height="5" fill="#D46248"/>
  <rect x="10" y="11" width="2" height="1" fill="#C8BCA8"/>
  <rect x="13" y="11" width="2" height="1" fill="#C8BCA8"/>
  <rect x="10" y="12" width="1" height="1" fill="#C8BCA8"/>
  <rect x="12" y="12" width="1" height="1" fill="#C8BCA8"/>
  <rect x="14" y="12" width="1" height="1" fill="#C8BCA8"/>
  <rect x="10" y="13" width="2" height="1" fill="#C8BCA8"/>
  <rect x="13" y="13" width="2" height="1" fill="#C8BCA8"/>
  <rect x="10" y="14" width="1" height="1" fill="#C8BCA8"/>
  <rect x="12" y="14" width="1" height="1" fill="#C8BCA8"/>
  <rect x="14" y="14" width="1" height="1" fill="#C8BCA8"/>
  <rect x="10" y="15" width="2" height="1" fill="#C8BCA8"/>
  <rect x="13" y="15" width="2" height="1" fill="#C8BCA8"/>
</svg>
