<svg xmlns="http://www.w3.org/2000/svg" viewBox="0 0 48 48" shape-rendering="crispEdges" role="img" aria-label="Warehouse06">
  <title>Warehouse06</title>
  <!-- cabinet body -->
  <rect x="6" y="5" width="28" height="38" fill="#6B5344"/>
  <rect x="7" y="6" width="26" height="36" fill="#8B6F52"/>
  <!-- top drawer -->
  <rect x="8" y="8" width="24" height="9" fill="#E8D9C0"/>
  <rect x="28" y="10" width="3" height="5" fill="#B84A32"/>
  <!-- middle drawer (pulled out) -->
  <rect x="8" y="19" width="24" height="9" fill="#D9C8A8"/>
  <rect x="32" y="19" width="10" height="9" fill="#F2E6CE"/>
  <rect x="34" y="21" width="6" height="5" fill="#1E2A22"/>
  <!-- 8-bit screen (Vector-style green phosphor) -->
  <rect x="35" y="22" width="1" height="1" fill="#5CFF5C"/>
  <rect x="36" y="22" width="2" height="1" fill="#5CFF5C"/>
  <rect x="38" y="22" width="1" height="1" fill="#5CFF5C"/>
  <rect x="35" y="23" width="1" height="1" fill="#5CFF5C"/>
  <rect x="36" y="23" width="1" height="1" fill="#3DB83D"/>
  <rect x="37" y="23" width="1" height="1" fill="#5CFF5C"/>
  <rect x="38" y="23" width="1" height="1" fill="#5CFF5C"/>
  <rect x="36" y="24" width="2" height="1" fill="#3DB83D"/>
  <!-- bottom drawer -->
  <rect x="8" y="30" width="24" height="9" fill="#E8D9C0"/>
  <rect x="28" y="32" width="3" height="5" fill="#B84A32"/>
  <!-- index label "06" -->
  <rect x="10" y="11" width="2" height="1" fill="#4A3828"/>
  <rect x="13" y="11" width="2" height="1" fill="#4A3828"/>
  <rect x="10" y="12" width="1" height="1" fill="#4A3828"/>
  <rect x="12" y="12" width="1" height="1" fill="#4A3828"/>
  <rect x="14" y="12" width="1" height="1" fill="#4A3828"/>
  <rect x="10" y="13" width="2" height="1" fill="#4A3828"/>
  <rect x="13" y="13" width="2" height="1" fill="#4A3828"/>
  <rect x="10" y="14" width="1" height="1" fill="#4A3828"/>
  <rect x="12" y="14" width="1" height="1" fill="#4A3828"/>
  <rect x="14" y="14" width="1" height="1" fill="#4A3828"/>
  <rect x="10" y="15" width="2" height="1" fill="#4A3828"/>
  <rect x="13" y="15" width="2" height="1" fill="#4A3828"/>
</svg>
